<?xml version="1.0" standalone="no"?>
<!DOCTYPE svg PUBLIC "-//W3C//DTD SVG 20010904//EN"
 "http://www.w3.org/TR/2001/REC-SVG-20010904/DTD/svg10.dtd">
<svg version="1.0" xmlns="http://www.w3.org/2000/svg"
 width="750.000000pt" height="945.000000pt" viewBox="0 0 750.000000 945.000000"
 preserveAspectRatio="xMidYMid meet">
<metadata>
Created by potrace 1.16, written by Peter Selinger 2001-2019
</metadata>
<g transform="translate(0.000000,945.000000) scale(0.100000,-0.100000)"
fill="#000000" stroke="none">
<path d="M5020 7384 c-41 -20 -100 -46 -130 -59 -30 -13 -108 -48 -173 -79
-64 -31 -119 -56 -122 -56 -2 0 -41 -18 -87 -39 -46 -21 -135 -62 -198 -90
-63 -28 -133 -60 -155 -71 -22 -11 -121 -56 -220 -101 -175 -79 -469 -213
-590 -269 -241 -110 -709 -324 -845 -385 -58 -26 -181 -82 -275 -125 -93 -43
-330 -151 -525 -240 -195 -89 -377 -172 -405 -185 -27 -12 -70 -32 -95 -43
-169 -78 -546 -250 -597 -273 l-63 -29 0 -100 c0 -54 4 -101 8 -104 5 -3 26 3
48 14 21 10 125 57 229 103 105 47 262 118 350 157 88 40 187 83 220 97 33 14
65 28 70 32 6 4 28 15 50 23 22 9 177 78 345 153 168 76 339 152 380 170 142
61 555 245 580 260 14 7 50 23 80 35 29 11 76 32 104 45 63 29 196 89 436 194
185 82 320 143 415 187 28 12 93 41 145 64 158 70 362 160 415 185 28 13 88
40 135 60 47 21 112 50 145 65 33 16 128 58 210 94 83 36 162 71 177 78 l28
13 0 128 c0 70 -4 127 -8 127 -4 0 -41 -16 -82 -36z"/>
<path d="M5180 6500 l0 -920 533 2 532 3 3 492 c2 491 2 492 -19 503 -11 7
-30 20 -42 30 -38 32 -331 270 -352 285 -11 9 -111 89 -222 178 -110 89 -253
204 -317 255 l-116 93 0 -921z"/>
<path d="M1478 5505 c-5 -5 -8 -732 -8 -1617 l0 -1608 150 0 150 0 0 -435 0
-435 -150 0 -150 0 0 -245 0 -245 535 0 535 0 1 1743 c1 958 4 1754 8 1770 6
27 8 25 81 -61 41 -49 91 -109 110 -132 19 -24 114 -136 210 -249 96 -114 191
-226 210 -250 19 -24 116 -139 215 -255 99 -117 196 -232 215 -256 45 -56 191
-230 194 -230 1 0 92 104 201 231 110 127 296 342 413 477 117 136 228 265
247 287 139 166 448 515 456 515 5 0 9 190 9 495 l0 495 -1153 0 c-635 0
-1450 3 -1813 6 -362 4 -662 3 -666 -1z m972 -3760 l0 -765 -290 0 -290 0 0
765 0 765 290 0 290 0 0 -765z"/>
<path d="M1915 2458 c-3 -7 -4 -332 -3 -723 l3 -710 258 -3 257 -2 0 725 0
725 -255 0 c-195 0 -257 -3 -260 -12z"/>
<path d="M5180 3210 l0 -2290 533 2 532 3 0 2285 0 2285 -257 3 -258 2 -2
-1031 c-2 -818 0 -1033 10 -1036 6 -3 12 -11 12 -18 0 -17 30 -41 61 -48 40
-10 113 -71 147 -124 28 -45 50 -101 66 -165 l6 -28 -321 0 -321 0 7 33 c29
143 119 259 227 287 21 6 38 17 38 25 0 8 8 22 18 32 16 17 17 78 14 1046 l-2
1027 -255 0 -255 0 0 -2290z m464 -1376 c3 -9 6 -27 6 -40 0 -23 3 -24 65 -24
l65 0 0 -95 0 -95 148 0 c197 0 192 2 192 -71 l0 -59 -45 0 c-25 0 -45 -3 -45
-8 0 -4 12 -48 26 -97 14 -50 41 -144 59 -210 18 -66 39 -133 45 -149 9 -24 8
-32 -4 -44 -18 -18 -32 -10 -40 25 -4 16 -22 80 -41 143 -18 63 -48 166 -67
227 l-33 113 -262 0 c-299 0 -268 10 -297 -100 -9 -36 -21 -74 -26 -85 -5 -11
-23 -69 -39 -130 -40 -150 -55 -189 -74 -193 -25 -5 -22 28 13 149 17 57 44
154 61 214 16 61 32 118 35 128 5 14 -1 17 -39 17 -49 0 -57 9 -57 63 0 62 8
65 188 66 l122 1 0 91 c0 82 2 91 20 96 22 6 26 33 10 64 -6 11 -7 19 -1 19 5
0 12 -7 15 -16z"/>
<path d="M1470 2055 c0 -205 -14 -187 150 -183 l105 3 3 178 2 177 -130 0
-130 0 0 -175z"/>
<path d="M1464 1796 c-2 -6 -3 -84 -2 -171 l3 -160 125 0 125 0 0 170 0 170
-123 2 c-88 1 -125 -2 -128 -11z"/>
<path d="M880 350 c0 -116 2 -140 15 -140 11 0 15 21 17 107 l3 107 48 -82
c26 -45 52 -82 57 -82 5 0 23 26 39 58 57 111 60 111 61 -5 0 -85 3 -103 15
-103 13 0 15 22 15 140 0 108 -3 140 -13 140 -11 0 -36 -36 -93 -137 -10 -18
-22 -33 -25 -33 -4 0 -29 38 -56 85 -31 55 -54 85 -65 85 -16 0 -18 -13 -18
-140z"/>
<path d="M1855 478 c-2 -7 -3 -69 -2 -138 l2 -125 98 0 c98 0 99 0 126 31 53
59 48 169 -10 218 -28 24 -38 26 -120 26 -63 0 -91 -4 -94 -12z m150 -28 c52
-12 65 -32 65 -102 0 -83 -19 -100 -108 -96 l-67 3 -3 89 c-2 49 -1 95 2 103
6 15 53 17 111 3z"/>
<path d="M2300 350 l0 -140 110 0 c103 0 110 1 110 20 0 19 -7 20 -91 20 l-90
0 3 43 3 42 48 3 c39 3 47 6 47 23 0 16 -7 19 -50 19 l-50 0 0 40 0 40 90 0
c73 0 90 3 90 15 0 12 -19 15 -110 15 l-110 0 0 -140z"/>
<path d="M2702 470 c-17 -27 -15 -91 4 -118 14 -20 24 -22 100 -22 l84 0 0
-40 0 -40 -84 0 c-75 0 -84 2 -89 20 -3 11 -10 20 -16 20 -20 0 -24 -29 -7
-55 16 -24 21 -25 109 -25 59 0 97 4 105 12 7 7 12 38 12 69 0 80 -11 89 -111
89 l-80 0 3 38 3 37 73 3 c67 3 74 1 79 -18 6 -23 33 -27 33 -4 0 8 -5 24 -10
35 -9 17 -22 19 -103 19 -81 0 -94 -2 -105 -20z"/>
<path d="M3369 463 c-16 -43 -8 -231 11 -243 8 -5 61 -10 116 -10 117 0 114
-3 114 96 l0 64 -60 0 c-53 0 -60 -2 -60 -20 0 -17 7 -20 45 -20 l45 0 0 -40
0 -40 -85 0 -86 0 3 103 3 102 80 0 c76 0 80 -1 83 -23 5 -35 27 -20 27 19 l0
34 -113 3 -112 3 -11 -28z"/>
<path d="M3810 350 c0 -118 2 -140 15 -140 12 0 15 18 15 105 0 58 4 105 8
105 5 0 50 -47 102 -105 51 -58 97 -105 101 -105 5 0 9 63 9 140 0 118 -2 140
-15 140 -12 0 -15 -18 -15 -100 0 -55 -4 -100 -9 -100 -5 0 -23 17 -40 38
-175 210 -171 209 -171 22z"/>
<path d="M4550 456 c-9 -27 -8 -39 2 -56 12 -18 10 -23 -19 -46 -29 -22 -33
-31 -33 -73 0 -26 5 -52 12 -59 7 -7 39 -12 72 -12 48 0 64 4 83 22 l23 21 23
-21 c13 -12 32 -22 42 -22 16 0 13 6 -15 35 l-34 35 22 23 c22 24 30 57 13 57
-5 0 -18 -12 -30 -27 l-20 -28 -55 55 c-36 35 -56 63 -56 78 0 21 4 23 43 20
35 -2 43 -7 45 -26 5 -31 22 -17 22 18 0 33 -14 40 -80 40 -46 0 -49 -2 -60
-34z"/>
<path d="M5200 350 l0 -140 99 0 c77 0 103 4 115 16 19 19 21 95 4 112 -10 10
-10 17 0 32 15 24 16 74 2 101 -10 17 -22 19 -115 19 l-105 0 0 -140z"/>
<path d="M5622 360 c2 -103 6 -133 18 -140 8 -5 56 -10 107 -10 81 0 94 2 103
19 5 11 10 74 10 140 0 114 -1 121 -20 121 -19 0 -20 -7 -20 -120 l0 -120 -80
0 -80 0 0 120 c0 115 -1 120 -21 120 -20 0 -20 -4 -17 -130z"/>
<path d="M6302 353 l3 -138 108 -3 c102 -3 107 -2 107 18 0 19 -6 20 -85 20
l-85 0 0 120 0 120 -25 0 -26 0 3 -137z"/>
<path d="M6680 350 l0 -140 85 0 c101 0 135 14 159 64 35 74 8 184 -51 207
-13 5 -62 9 -109 9 l-84 0 0 -140z m192 89 c21 -11 33 -67 25 -117 -9 -54 -37
-72 -113 -72 l-64 0 0 98 c0 54 3 102 8 106 9 10 119 -2 144 -15z"/>
</g>
</svg>
